<svg xmlns="http://www.w3.org/2000/svg" viewBox="0 0 749.53 189.11"><g id="Layer_2" data-name="Layer 2"><g id="Layer_1-2" data-name="Layer 1"><path d="M98.46,120.2l-26.27-15c-3.21,7-10.63,11.23-19.45,11.23a22.77,22.77,0,0,1-15.43-5.69c-7.49-6.81-7.28-16.21-7.23-17.57s-.2-10.84,7.23-17.58a22.94,22.94,0,0,1,15.43-5.68c8.82,0,16,4.21,19.45,11.23L98.46,65.86C89.84,50.41,72.59,40.19,53.14,40.19,22.66,40.19,0,63.25,0,93.13c0,19.15,9.32,35.49,24,44.76l67.77-8.43A47.58,47.58,0,0,0,98.46,120.2Z"/><path d="M145.64,91.65c0-14.23,7.62-20.65,18.65-20.65,9.63,0,17.45,5.81,17.45,18.25v29l30.08-3.74V84.84c0-27.08-17.24-41.52-37.5-41.52-13.23,0-23.26,4.82-28.68,12.24V6H115.56V126.51l30.08-3.74Z"/><path d="M259.06,96.22c0-15,10-24.47,23.86-24.47s23.86,9.43,23.86,24.47a30.06,30.06,0,0,1-.7,6.59L336.86,99V46.08H306.78v9.43c-6.61-7.62-16.44-12.24-29.88-12.24-26.27,0-47.93,23.07-47.93,53a59,59,0,0,0,2.16,15.92l30.57-3.81A27.14,27.14,0,0,1,259.06,96.22Z"/><path d="M384,91.6C384,77.37,391.59,71,402.62,71c9.48,0,17.19,5.65,17.43,17.69l30.1-3.74v-.11c0-27.08-17.25-41.52-37.5-41.52-13.24,0-23.26,4.82-28.68,12.24V46.08H353.89V96.87L384,93.13Z"/><path d="M521.46,71.93a27,27,0,0,1,11.95,2.61L575,69.37V47.06H545.73V57.29c-6.62-8.22-16.25-13-29.28-13-24,0-42.62,16.56-47.85,38.35l35.61-4.43C508.48,74.21,514.46,71.93,521.46,71.93Z"/><path d="M646.2,42.21C626.06,42.27,610,51.65,601,66.13l80.57-10A49.87,49.87,0,0,0,646.2,42.21Z"/><path d="M95.81,128.9,28,137.33a54.2,54.2,0,0,0,29.1,8.17A52.05,52.05,0,0,0,95.81,128.9Z"/><polygon points="152.58 145.18 152.58 121.55 122.5 125.29 122.5 145.18 152.58 145.18"/><polygon points="188.68 145.18 218.76 145.18 218.76 113.32 188.68 117.06 188.68 145.18"/><path d="M283.84,147.94c13.43,0,23.26-4.61,29.88-12.23v9.42H343.8V97.77L313,101.59c-2.51,11.15-11.47,17.87-23.16,17.87-9.6,0-17.36-4.54-21.22-12.35l-30.56,3.81C244.16,132.68,262.47,147.94,283.84,147.94Z"/><polygon points="390.91 145.13 390.91 91.91 360.82 95.65 360.82 145.13 390.91 145.13"/><path d="M427,88v57.15h30.08V83.68L427,87.42C427,87.61,427,87.79,427,88Z"/><path d="M523.38,144.91c13,0,22.66-4.82,29.28-13v9.23c0,14.23-8.62,21.45-22.66,21.45-13.24,0-19.05-5.61-22.86-12.63l-25.67,14.84c7.67,13.67,21,21.38,37.31,23.59,4.31.59,22.67,3.46,40.1-7.7,16.1-10.32,21.57-26.19,22.13-29.18.45-2.41.69-5,.69-5,.19-2.09.24-3.91.24-5.36V68.15l-41.6,5.17C547.93,77,552.66,84.46,552.66,94c0,13.84-10,23.26-24.26,23.26S504.13,107.81,504.13,94a22.69,22.69,0,0,1,7-17l-35.61,4.43A53.9,53.9,0,0,0,474.05,94C474.05,121.64,494.91,144.91,523.38,144.91Z"/><path d="M655.68,146.86c19.05-.06,33.87-7.12,43.65-20.79l-24.11-13.76c-4,4.42-11,7.65-19.23,7.68-11,0-20.26-3.54-24.11-14l71.19-.23a58.46,58.46,0,0,0,1.17-12c0-15.75-6-29.4-15.73-38.88L608,64.91a54.53,54.53,0,0,0-8,29.19C600.06,124,621.39,147,655.68,146.86ZM653,67.66c9,0,18.06,4.15,21.3,15.77l-43.11.14C634,73.34,641.59,67.7,653,67.66Z"/><path d="M746.58,10.49A21,21,0,0,0,731.52.28c-.56-.1-1.11-.15-1.64-.2l-.7-.07h-.08L727,0l-.72.08c-.42.05-.84.1-1.27.17A20.46,20.46,0,0,0,713.62,5.9a20.71,20.71,0,0,0-6.33,18.59,20.21,20.21,0,0,0,6.93,12.72A20.58,20.58,0,0,0,728,42.55a23.64,23.64,0,0,0,4.52-.45,21.34,21.34,0,0,0,17-20.86A20.68,20.68,0,0,0,746.58,10.49ZM742.71,21.1a14.47,14.47,0,0,1-14.26,14.62h-.19a14.42,14.42,0,0,1-14.42-14.27A14.48,14.48,0,0,1,728.16,6.84h.18A14.42,14.42,0,0,1,742.71,21.1Z"/><path d="M728.65,33.7a12.12,12.12,0,0,1-12.43-12.43,12.12,12.12,0,0,1,3.53-8.87,12,12,0,0,1,8.9-3.55,12.16,12.16,0,0,1,6,1.53A11.44,11.44,0,0,1,739,14.5l-5.28,3a4.87,4.87,0,0,0-2-2A6.7,6.7,0,0,0,724,16.59a6.39,6.39,0,0,0-1.76,4.68A6.39,6.39,0,0,0,724,26a6.12,6.12,0,0,0,4.61,1.79,6.18,6.18,0,0,0,3-.73,4.85,4.85,0,0,0,2-2L739,28.05a11.33,11.33,0,0,1-4.31,4.13A12.23,12.23,0,0,1,728.65,33.7Z"/></g></g></svg>